<svg width="191" height="55" viewBox="0 0 191 55" fill="none" xmlns="http://www.w3.org/2000/svg">
<g clip-path="url(#clip0_180_674)">
<path fill-rule="evenodd" clip-rule="evenodd" d="M63.4512 48.9468H75.0919V7.28592H63.4512V48.9468Z" fill="white"/>
<path fill-rule="evenodd" clip-rule="evenodd" d="M81.1992 48.9468V7.28592H113.21V15.3631H92.8391V23.9596H111.579V32.0383H92.8391V40.8658H113.21V48.9468H81.1992Z" fill="white"/>
<path fill-rule="evenodd" clip-rule="evenodd" d="M119.732 48.9468V7.28592H151.735V15.3631H131.37V23.9596H150.103V32.0383H131.37V40.8658H151.735V48.9468H119.732Z" fill="white"/>
<mask id="mask0_180_674" style="mask-type:luminance" maskUnits="userSpaceOnUse" x="0" y="0" width="191" height="55">
<path d="M0.00195312 0.0314331H190.262V54.9998H0.00195312V0.0314331Z" fill="white"/>
</mask>
<g mask="url(#mask0_180_674)">
<path fill-rule="evenodd" clip-rule="evenodd" d="M158.252 48.9468V7.28592H190.262V15.3631H169.899V23.9596H188.634V32.0383H169.899V40.8658H190.262V48.9468H158.252Z" fill="white"/>
</g>
<mask id="mask1_180_674" style="mask-type:luminance" maskUnits="userSpaceOnUse" x="0" y="0" width="191" height="55">
<path d="M0.00195312 0.0314331H190.262V54.9998H0.00195312V0.0314331Z" fill="white"/>
</mask>
<g mask="url(#mask1_180_674)">
<path fill-rule="evenodd" clip-rule="evenodd" d="M26.5554 32.2968C26.4017 35.2385 26.3636 37.961 26.1441 40.9098C27.3186 41.0159 28.6437 41.1172 29.8959 40.9365L29.5218 32.7156L29.4561 32.3243C28.5027 32.3612 27.6 32.3989 26.5554 32.2968ZM19.2205 24.0358C17.7742 24.7547 15.6462 25.8414 15.8808 27.808C16.1907 28.8821 17.3636 29.5759 18.2917 30.0174C23.4217 32.2583 30.232 32.3345 35.6481 30.6617C36.9851 30.151 38.7802 29.4101 39.0259 27.786C39.0116 26.444 37.5787 25.5994 36.5492 25.0855V25.0219C36.9082 24.8812 37.3211 24.7547 37.6928 24.7162V24.6801C35.8787 24.3579 34.1272 23.8873 32.3702 23.4269C32.7086 24.1914 32.9527 24.9975 33.2349 25.7919C33.7627 25.6245 34.304 25.4972 34.8738 25.4202C35.8003 25.7777 37.127 26.2892 37.2585 27.4379C37.3616 28.512 36.1759 29.0353 35.427 29.4714C31.454 30.9045 26.9842 31.0444 22.8408 29.9546C21.6964 29.5971 20.0448 29.1382 19.9029 27.6933C20.7152 25.7919 22.8162 25.3959 24.5709 24.9339C23.669 24.3579 22.752 23.848 21.8779 23.2069C20.934 23.2587 20.0717 23.6681 19.2205 24.0358ZM27.9978 12.5604L27.4835 14.1971L24.9046 21.5207C25.5505 21.5859 26.3501 21.5207 26.9842 21.5859V21.6464L26.6069 29.9302L26.6719 30.0174C27.4969 30.0976 28.5272 30.1384 29.3681 29.9962V29.8658L29.0313 21.8311L29.082 21.5592L31.351 21.5207C30.2193 18.5562 29.1216 15.5619 28.0644 12.5604H27.9978ZM26.7995 8.88094C28.6968 7.59944 30.3992 9.39087 31.8693 10.4147C37.5534 14.9506 42.9172 20.1426 47.0043 26.0056C47.5194 26.7622 47.7524 27.9369 47.2904 28.7933C46.2308 30.5454 44.8011 32.1444 43.4458 33.7684V33.8572C40.0665 37.4236 36.4977 41.0897 32.6413 44.11C30.759 45.2454 29.0313 47.7251 26.6069 46.189C21.0869 42.1897 15.8047 37.2177 11.3269 31.8851C10.5677 30.7128 9.38205 29.7519 8.85422 28.4224C8.11717 26.6216 9.74186 25.3299 10.6715 23.9737C15.2373 18.3912 20.9078 12.9172 26.7995 8.88094ZM31.5571 3.54908L29.4561 0.597152C29.1985 0.44158 28.8775 0.183866 28.593 0.108438C27.9732 -0.15792 27.3051 0.164223 26.7995 0.544509L22.9977 5.45365C16.8984 12.9423 9.67845 19.9352 1.80149 25.2953C1.17856 25.7777 0.252882 26.2484 0.0602967 27.0435C-0.146554 27.7585 0.229106 28.3486 0.676886 28.7933C6.98464 33.1006 13.015 38.214 18.3828 44.0456C19.3354 45.0379 20.1082 46.0248 21.0402 46.9567C22.6102 49.0278 24.4544 51.1154 25.8976 53.3374C26.3501 53.8065 26.4278 54.5773 27.1355 54.8059C27.6895 54.9961 28.3735 55.1249 28.9021 54.8059L29.4275 54.2827C35.954 45.1165 44.2312 36.8846 53.4793 30.2382C54.4049 29.4187 56.1731 29.1139 56.1984 27.5927C56.1327 26.8911 55.7206 26.1997 55.1127 25.8162L54.9613 25.7919C50.2022 22.5822 45.7679 18.9522 41.5905 14.8343L36.974 10.0532C35.1036 7.9978 33.2864 5.7208 31.5571 3.54908ZM26.1179 7.75422C27.9732 6.32265 30.308 7.51144 31.8693 8.8283C33.5043 10.0674 35.2075 11.4714 36.7022 12.9062L36.974 13.0609C41.1134 16.8685 44.958 21.1004 48.1162 25.5742C48.6282 26.3529 49.0807 27.2352 48.7946 28.2684C47.7413 30.8786 45.6015 32.9592 43.7303 35.2385C39.6821 39.5584 35.4119 43.7384 30.6314 47.0729C29.6645 47.751 28.36 48.3772 27.2013 47.839C23.6825 46.013 20.7152 43.0218 17.6355 40.2962C14.0635 37.0127 10.4789 33.1894 7.77163 29.1901C7.36902 28.6291 7.25569 27.9369 7.26757 27.1967C7.6155 25.8162 8.5697 24.6801 9.4724 23.5164C12.6711 19.4747 16.5893 15.6412 20.5464 12.1393C20.6376 12.0497 20.8064 11.8588 20.9498 11.7677C22.649 10.3109 24.3371 9.02158 26.1179 7.75422Z" fill="white"/>
</g>
<path fill-rule="evenodd" clip-rule="evenodd" d="M37.5829 50.8679H37.1827V50.3651H37.4989C37.6709 50.3651 37.9039 50.3816 37.9039 50.5984C37.9039 50.8263 37.785 50.8679 37.5829 50.8679ZM38.381 50.6424C38.381 50.1655 38.0624 50.0146 37.5187 50.0146H36.7333V52.0991H37.1827V51.2223H37.3966L37.8801 52.0991H38.4158L37.8737 51.1846C38.1575 51.161 38.381 51.0251 38.381 50.6424ZM37.5076 52.547V52.5407C36.7333 52.547 36.1088 51.9499 36.1088 51.0557C36.1088 50.1655 36.7333 49.5731 37.5076 49.5731C38.2629 49.5731 38.9072 50.1655 38.9072 51.0557C38.9072 51.9499 38.2629 52.547 37.5076 52.547ZM37.5076 49.1221C36.4694 49.1221 35.5469 49.8339 35.5469 51.0557C35.5469 52.2799 36.4694 52.9949 37.5076 52.9949C38.5387 52.9949 39.4628 52.2799 39.4628 51.0557C39.4628 49.8339 38.5387 49.1221 37.5076 49.1221Z" fill="white"/>
</g>
<defs>
<clipPath id="clip0_180_674">
<rect width="191" height="55" fill="white"/>
</clipPath>
</defs>
</svg>
